<svg width="931" height="440" viewBox="0 0 931 440" fill="none" xmlns="http://www.w3.org/2000/svg">
<rect width="931" height="440" fill="#58C5B7"/>
<rect x="114" y="175" width="703" height="28" rx="3" fill="white"/>
<rect x="114" y="235" width="703" height="28" rx="3" fill="white"/>
<rect x="114" y="295" width="343" height="28" rx="3" fill="white"/>
<rect x="474" y="295" width="343" height="28" rx="3" fill="white"/>
<rect x="691" y="374" width="126" height="33" rx="6" fill="white"/>
<rect x="547.5" y="374.5" width="125" height="32" rx="5.5" stroke="white"/>
<path d="M747.401 385.818V396H745.542L741.112 389.592H741.038V396H738.885V385.818H740.774L745.169 392.222H745.259V385.818H747.401ZM749.18 396V385.818H756.041V387.593H751.333V390.019H755.688V391.794H751.333V394.225H756.061V396H749.18ZM759.771 385.818L761.824 389.288H761.903L763.967 385.818H766.398L763.29 390.909L766.467 396H763.991L761.903 392.525H761.824L759.736 396H757.27L760.457 390.909L757.33 385.818H759.771ZM767.372 387.593V385.818H775.734V387.593H772.617V396H770.489V387.593H767.372Z" fill="#58C5B7"/>
<path d="M574.885 396V385.818H578.902C579.674 385.818 580.332 385.966 580.876 386.261C581.419 386.552 581.834 386.958 582.119 387.479C582.407 387.996 582.551 388.592 582.551 389.268C582.551 389.945 582.405 390.541 582.114 391.058C581.822 391.575 581.399 391.978 580.846 392.266C580.296 392.555 579.629 392.699 578.847 392.699H576.287V390.974H578.499C578.914 390.974 579.255 390.902 579.523 390.76C579.795 390.614 579.997 390.414 580.13 390.158C580.266 389.9 580.334 389.603 580.334 389.268C580.334 388.93 580.266 388.635 580.13 388.384C579.997 388.128 579.795 387.931 579.523 387.792C579.252 387.649 578.907 387.578 578.489 387.578H577.038V396H574.885ZM583.949 396V385.818H587.966C588.735 385.818 589.392 385.956 589.935 386.231C590.482 386.503 590.898 386.889 591.183 387.389C591.471 387.886 591.616 388.471 591.616 389.144C591.616 389.82 591.47 390.402 591.178 390.889C590.886 391.373 590.464 391.744 589.91 392.003C589.36 392.261 588.694 392.391 587.912 392.391H585.222V390.661H587.564C587.975 390.661 588.316 390.604 588.588 390.491C588.86 390.379 589.062 390.21 589.194 389.984C589.33 389.759 589.398 389.479 589.398 389.144C589.398 388.806 589.33 388.521 589.194 388.289C589.062 388.057 588.858 387.881 588.583 387.762C588.311 387.639 587.968 387.578 587.554 387.578H586.102V396H583.949ZM589.448 391.366L591.979 396H589.602L587.126 391.366H589.448ZM593.137 396V385.818H599.998V387.593H595.29V390.019H599.645V391.794H595.29V394.225H600.018V396H593.137ZM603.549 385.818L606.01 393.554H606.104L608.57 385.818H610.956L607.446 396H604.672L601.157 385.818H603.549ZM614.335 385.818V396H612.182V385.818H614.335ZM625.462 390.909C625.462 392.019 625.252 392.964 624.831 393.743C624.413 394.522 623.843 395.117 623.121 395.528C622.401 395.935 621.593 396.139 620.694 396.139C619.79 396.139 618.978 395.934 618.258 395.523C617.539 395.112 616.971 394.517 616.553 393.738C616.135 392.959 615.927 392.016 615.927 390.909C615.927 389.799 616.135 388.854 616.553 388.075C616.971 387.296 617.539 386.703 618.258 386.295C618.978 385.884 619.79 385.679 620.694 385.679C621.593 385.679 622.401 385.884 623.121 386.295C623.843 386.703 624.413 387.296 624.831 388.075C625.252 388.854 625.462 389.799 625.462 390.909ZM623.28 390.909C623.28 390.19 623.172 389.583 622.956 389.089C622.744 388.596 622.444 388.221 622.057 387.966C621.669 387.711 621.215 387.583 620.694 387.583C620.174 387.583 619.72 387.711 619.332 387.966C618.944 388.221 618.643 388.596 618.427 389.089C618.215 389.583 618.109 390.19 618.109 390.909C618.109 391.628 618.215 392.235 618.427 392.729C618.643 393.223 618.944 393.597 619.332 393.852C619.72 394.107 620.174 394.235 620.694 394.235C621.215 394.235 621.669 394.107 622.057 393.852C622.444 393.597 622.744 393.223 622.956 392.729C623.172 392.235 623.28 391.628 623.28 390.909ZM633.346 385.818H635.499V392.43C635.499 393.173 635.321 393.822 634.967 394.379C634.615 394.936 634.123 395.37 633.49 395.682C632.857 395.99 632.12 396.144 631.278 396.144C630.433 396.144 629.693 395.99 629.06 395.682C628.427 395.37 627.935 394.936 627.584 394.379C627.232 393.822 627.057 393.173 627.057 392.43V385.818H629.21V392.246C629.21 392.634 629.294 392.979 629.463 393.281C629.635 393.582 629.877 393.819 630.189 393.991C630.5 394.164 630.863 394.25 631.278 394.25C631.695 394.25 632.058 394.164 632.366 393.991C632.678 393.819 632.918 393.582 633.087 393.281C633.26 392.979 633.346 392.634 633.346 392.246V385.818ZM642.793 388.746C642.753 388.345 642.583 388.034 642.281 387.812C641.979 387.59 641.57 387.479 641.053 387.479C640.702 387.479 640.405 387.528 640.163 387.628C639.921 387.724 639.736 387.858 639.606 388.031C639.48 388.203 639.417 388.398 639.417 388.617C639.411 388.799 639.449 388.959 639.532 389.094C639.618 389.23 639.736 389.348 639.885 389.447C640.034 389.544 640.206 389.628 640.402 389.701C640.597 389.771 640.806 389.83 641.028 389.88L641.943 390.099C642.387 390.198 642.795 390.331 643.166 390.496C643.537 390.662 643.859 390.866 644.131 391.108C644.402 391.35 644.613 391.635 644.762 391.963C644.914 392.291 644.992 392.667 644.996 393.092C644.992 393.715 644.833 394.255 644.518 394.712C644.207 395.166 643.756 395.519 643.166 395.771C642.579 396.02 641.872 396.144 641.043 396.144C640.221 396.144 639.505 396.018 638.895 395.766C638.289 395.514 637.815 395.142 637.474 394.648C637.135 394.151 636.958 393.536 636.942 392.803H639.025C639.048 393.145 639.146 393.43 639.318 393.658C639.494 393.884 639.727 394.054 640.019 394.17C640.314 394.283 640.647 394.339 641.018 394.339C641.383 394.339 641.699 394.286 641.968 394.18C642.24 394.074 642.45 393.927 642.599 393.738C642.748 393.549 642.823 393.332 642.823 393.087C642.823 392.858 642.755 392.666 642.619 392.51C642.487 392.354 642.291 392.222 642.032 392.112C641.777 392.003 641.464 391.903 641.093 391.814L639.984 391.536C639.126 391.327 638.448 391 637.951 390.556C637.454 390.112 637.207 389.514 637.21 388.761C637.207 388.145 637.371 387.606 637.702 387.146C638.037 386.685 638.496 386.325 639.079 386.067C639.663 385.808 640.326 385.679 641.068 385.679C641.824 385.679 642.483 385.808 643.047 386.067C643.613 386.325 644.054 386.685 644.369 387.146C644.684 387.606 644.846 388.14 644.856 388.746H642.793Z" fill="white"/>
<path d="M123.759 68.0909V87H119.761V71.8857H119.651L115.32 74.6001V71.0547L120.001 68.0909H123.759Z" fill="white"/>
<path d="M458.768 88V84.6761L466.535 77.4851C467.195 76.8459 467.749 76.2706 468.197 75.7592C468.651 75.2479 468.996 74.7472 469.23 74.2571C469.464 73.7599 469.582 73.2237 469.582 72.6484C469.582 72.0092 469.436 71.4588 469.145 70.9972C468.854 70.5284 468.456 70.1697 467.952 69.9212C467.447 69.6655 466.876 69.5376 466.237 69.5376C465.569 69.5376 464.987 69.6726 464.489 69.9425C463.992 70.2124 463.609 70.5994 463.339 71.1037C463.069 71.608 462.934 72.2081 462.934 72.9041H458.555C458.555 71.4766 458.879 70.2372 459.525 69.1861C460.171 68.1349 461.077 67.3217 462.241 66.7464C463.406 66.1712 464.749 65.8835 466.268 65.8835C467.831 65.8835 469.191 66.1605 470.349 66.7145C471.513 67.2614 472.419 68.0213 473.065 68.9943C473.712 69.9673 474.035 71.0824 474.035 72.3395C474.035 73.1634 473.871 73.9766 473.545 74.7791C473.225 75.5817 472.653 76.473 471.83 77.4531C471.006 78.4261 469.844 79.5945 468.346 80.9581L465.161 84.0795V84.2287H474.322V88H458.768Z" fill="white"/>
<path d="M818.522 87.2585C817.143 87.2585 815.915 87.0215 814.838 86.5476C813.767 86.0675 812.921 85.4089 812.299 84.5717C811.683 83.7285 811.366 82.7559 811.348 81.6541H815.374C815.398 82.1158 815.549 82.522 815.826 82.8729C816.109 83.2176 816.485 83.4853 816.952 83.6761C817.42 83.867 817.946 83.9624 818.531 83.9624C819.141 83.9624 819.679 83.8546 820.147 83.6392C820.615 83.4238 820.981 83.1252 821.246 82.7436C821.51 82.362 821.643 81.9219 821.643 81.4233C821.643 80.9186 821.501 80.4723 821.218 80.0845C820.941 79.6906 820.541 79.3828 820.018 79.1612C819.501 78.9396 818.885 78.8288 818.171 78.8288H816.408V75.8928H818.171C818.774 75.8928 819.307 75.7881 819.768 75.5788C820.236 75.3696 820.599 75.0803 820.858 74.7109C821.116 74.3355 821.246 73.8984 821.246 73.3999C821.246 72.9259 821.132 72.5104 820.904 72.1534C820.683 71.7902 820.369 71.5071 819.962 71.304C819.562 71.1009 819.094 70.9993 818.559 70.9993C818.017 70.9993 817.522 71.0978 817.072 71.2947C816.623 71.4856 816.263 71.7595 815.992 72.1165C815.721 72.4735 815.577 72.892 815.558 73.3722H811.727C811.745 72.2827 812.056 71.3224 812.659 70.4915C813.262 69.6605 814.075 69.0111 815.097 68.5433C816.125 68.0694 817.285 67.8324 818.577 67.8324C819.882 67.8324 821.024 68.0694 822.003 68.5433C822.982 69.0173 823.742 69.6574 824.283 70.4638C824.831 71.264 825.102 72.1626 825.096 73.1598C825.102 74.2185 824.773 75.1018 824.108 75.8097C823.449 76.5175 822.591 76.9669 821.532 77.1577V77.3054C822.923 77.4839 823.982 77.9671 824.708 78.755C825.441 79.5367 825.804 80.5154 825.798 81.6911C825.804 82.7682 825.493 83.7254 824.865 84.5625C824.243 85.3996 823.385 86.0582 822.289 86.5384C821.193 87.0185 819.938 87.2585 818.522 87.2585Z" fill="white"/>
<circle cx="465.5" cy="78.5" r="26.5" fill="#D9D9D9" fill-opacity="0.39"/>
</svg>
